<svg width="22" height="32" viewBox="0 0 22 32" fill="none" xmlns="http://www.w3.org/2000/svg">
<g clip-path="url(#clip0_10_22)">
<path d="M20.375 6.0625H2.375C1.9375 6.0625 1.57812 6.20312 1.29688 6.48438C1.01562 6.79687 0.875 7.15625 0.875 7.5625V25.5625C0.875 25.9688 1.01562 26.3281 1.29688 26.6406C1.57812 26.9219 1.9375 27.0625 2.375 27.0625H20.375C20.8125 27.0625 21.1719 26.9219 21.4531 26.6406C21.7344 26.3281 21.875 25.9688 21.875 25.5625V7.5625C21.875 7.15625 21.7344 6.79687 21.4531 6.48438C21.1719 6.20312 20.8125 6.0625 20.375 6.0625ZM7.20312 24.0625H4.10938V14.0312H7.25V24.0625H7.20312ZM5.65625 12.6719C5.15625 12.6719 4.73438 12.5 4.39062 12.1562C4.04687 11.8125 3.875 11.3906 3.875 10.8906C3.875 10.3594 4.04687 9.92188 4.39062 9.57812C4.73438 9.23437 5.15625 9.0625 5.65625 9.0625C6.1875 9.0625 6.60938 9.23437 6.92188 9.57812C7.26563 9.92188 7.45312 10.3594 7.48438 10.8906C7.45312 11.3906 7.26563 11.8125 6.92188 12.1562C6.60938 12.5 6.1875 12.6719 5.65625 12.6719ZM18.875 24.0625H15.7812V19.1875C15.8125 18.5625 15.7344 17.9688 15.5469 17.4062C15.3906 16.875 14.9219 16.5781 14.1406 16.5156C13.3594 16.5469 12.8438 16.8125 12.5938 17.3125C12.375 17.8125 12.2812 18.4062 12.3125 19.0938V24.0625H9.17188V14.0312H12.1719V15.3906H12.2188C12.4062 14.9844 12.75 14.625 13.25 14.3125C13.75 13.9687 14.3906 13.7969 15.1719 13.7969C16.7031 13.8281 17.7187 14.2813 18.2188 15.1562C18.7188 16.0625 18.9375 17.2031 18.875 18.5781V24.0625Z" fill="#9CA3AF"/>
</g>
<defs>
<clipPath id="clip0_10_22">
<rect width="21" height="24" fill="white" transform="translate(0.875 4)"/>
</clipPath>
</defs>
</svg>
