<svg width="20" height="29" viewBox="0 0 20 29" fill="none" xmlns="http://www.w3.org/2000/svg">
<path d="M1.875 7.11719C1.35417 7.14323 0.911458 7.32552 0.546875 7.66406C0.208333 8.02865 0.0260417 8.47135 0 8.99219C0.0260417 9.61719 0.273438 10.112 0.742188 10.4766L9.25781 16.8828C9.7526 17.1953 10.2474 17.1953 10.7422 16.8828L19.2578 10.4766C19.7266 10.112 19.974 9.61719 20 8.99219C19.974 8.47135 19.7917 8.02865 19.4531 7.66406C19.0885 7.32552 18.6458 7.14323 18.125 7.11719H1.875ZM0 11.4922V19.6172C0.0260417 20.3203 0.273438 20.9062 0.742188 21.375C1.21094 21.8438 1.79688 22.0911 2.5 22.1172H17.5C18.2031 22.0911 18.7891 21.8438 19.2578 21.375C19.7266 20.9062 19.974 20.3203 20 19.6172V11.4922L11.4844 17.8594C11.0417 18.1979 10.5469 18.3672 10 18.3672C9.45312 18.3672 8.95833 18.1979 8.51562 17.8594L0 11.4922Z" fill="#22D3EE"/>
</svg>
