<svg width="15" height="29" viewBox="0 0 15 29" fill="none" xmlns="http://www.w3.org/2000/svg">
<g clip-path="url(#clip0_10_229)">
<path d="M8.4375 24.1094C9.14062 23.25 10 22.0911 11.0156 20.6328C12.0312 19.2005 12.9427 17.7161 13.75 16.1797C14.5312 14.6432 14.9479 13.2891 15 12.1172C14.9479 9.98177 14.2188 8.21094 12.8125 6.80469C11.4062 5.39844 9.63542 4.66927 7.5 4.61719C5.36458 4.66927 3.59375 5.39844 2.1875 6.80469C0.78125 8.21094 0.0520833 9.98177 0 12.1172C0.0520833 13.2891 0.46875 14.6432 1.25 16.1797C2.05729 17.7161 2.96875 19.2005 3.98438 20.6328C5 22.0911 5.85938 23.25 6.5625 24.1094C6.82292 24.4219 7.13542 24.5781 7.5 24.5781C7.86458 24.5781 8.17708 24.4219 8.4375 24.1094ZM7.5 9.61719C8.4375 9.64323 9.15365 10.0599 9.64844 10.8672C10.1172 11.7005 10.1172 12.5339 9.64844 13.3672C9.15365 14.1745 8.4375 14.5911 7.5 14.6172C6.5625 14.5911 5.84635 14.1745 5.35156 13.3672C4.88281 12.5339 4.88281 11.7005 5.35156 10.8672C5.84635 10.0599 6.5625 9.64323 7.5 9.61719Z" fill="#22D3EE"/>
</g>
<defs>
<clipPath id="clip0_10_229">
<rect width="15" height="20" fill="white" transform="translate(0 4.1875)"/>
</clipPath>
</defs>
</svg>
