<svg width="20" height="29" viewBox="0 0 20 29" fill="none" xmlns="http://www.w3.org/2000/svg">
<g clip-path="url(#clip0_10_220)">
<path d="M6.44531 5.59375C6.28906 5.20312 6.04167 4.92969 5.70312 4.77344C5.33854 4.61719 4.96094 4.57812 4.57031 4.65625L1.13281 5.59375C0.429688 5.85417 0.0520833 6.36198 0 7.11719C0.0260417 10.3724 0.820312 13.3151 2.38281 15.9453C3.94531 18.5755 6.04167 20.6719 8.67188 22.2344C11.3021 23.7969 14.2448 24.5911 17.5 24.6172C18.2552 24.5651 18.763 24.1875 19.0234 23.4844L19.9609 20.0469C20.0391 19.6562 20 19.2786 19.8438 18.9141C19.6875 18.5755 19.4141 18.3281 19.0234 18.1719L15.2734 16.6094C14.5703 16.375 13.9714 16.5312 13.4766 17.0781L11.9141 18.9922C10.5339 18.3411 9.29688 17.4818 8.20312 16.4141C7.13542 15.3203 6.27604 14.0833 5.625 12.7031L7.53906 11.1406C8.08594 10.6458 8.24219 10.0469 8.00781 9.34375L6.44531 5.59375Z" fill="#22D3EE"/>
</g>
<defs>
<clipPath id="clip0_10_220">
<rect width="20" height="20" fill="white" transform="translate(0 4.1875)"/>
</clipPath>
</defs>
</svg>
