<svg width="37" height="36" viewBox="0 0 37 36" fill="none" xmlns="http://www.w3.org/2000/svg">
<g clip-path="url(#clip0_10_74)">
<path d="M11.9062 27.8438L9.72656 25.6641C9.11719 25.0078 8.92969 24.2578 9.16406 23.4141C9.39844 22.7578 9.67969 21.9609 10.0078 21.0234H2.55469C1.89844 21.0234 1.40625 20.7422 1.07812 20.1797C0.796875 19.6172 0.796875 19.0547 1.07812 18.4922L4.80469 12.2344C5.78906 10.6406 7.24219 9.82031 9.16406 9.77344H14.9297C15.1172 9.49219 15.2812 9.23437 15.4219 9C17.3906 6.1875 19.5469 4.17188 21.8906 2.95312C24.2344 1.73437 26.5547 1.03125 28.8516 0.84375C31.1484 0.703125 33.1641 0.796875 34.8984 1.125C35.7422 1.35937 36.2813 1.89844 36.5156 2.74219C36.8437 4.47656 36.9375 6.49219 36.7969 8.78906C36.6094 11.0859 35.9063 13.4063 34.6875 15.75C33.4687 18.0937 31.4531 20.25 28.6406 22.2188C28.4063 22.3594 28.1484 22.5234 27.8672 22.7109V28.4766C27.8203 30.3984 27 31.8516 25.4062 32.8359L19.1484 36.5625C18.5859 36.8438 18.0234 36.8438 17.4609 36.5625C16.8984 36.2344 16.6172 35.7422 16.6172 35.0859V27.5625C15.6328 27.8906 14.7891 28.1719 14.0859 28.4062C13.2422 28.6406 12.5156 28.4531 11.9062 27.8438ZM27.8672 12.5859C28.9453 12.5391 29.7656 12.0703 30.3281 11.1797C30.7969 10.2422 30.7969 9.30469 30.3281 8.36719C29.7656 7.47656 28.9453 7.00781 27.8672 6.96094C26.7891 7.00781 25.9688 7.47656 25.4062 8.36719C24.9375 9.30469 24.9375 10.2422 25.4062 11.1797C25.9688 12.0703 26.7891 12.5391 27.8672 12.5859Z" fill="#22D3EE"/>
</g>
<defs>
<clipPath id="clip0_10_74">
<rect width="36" height="36" fill="white" transform="translate(0.65625)"/>
</clipPath>
</defs>
</svg>
