<svg width="28" height="36" viewBox="0 0 28 36" fill="none" xmlns="http://www.w3.org/2000/svg">
<g clip-path="url(#clip0_10_63)">
<path d="M0.328125 5.27344C0.375 4.00781 0.820312 2.95312 1.66406 2.10938C2.50781 1.26562 3.5625 0.820313 4.82812 0.773438H20.5781C21.8438 0.820313 22.8984 1.26562 23.7422 2.10938C24.5859 2.95312 25.0312 4.00781 25.0781 5.27344V32.2734C25.0312 33.5391 24.5859 34.5938 23.7422 35.4375C22.8984 36.2812 21.8438 36.7266 20.5781 36.7734H4.82812C3.5625 36.7266 2.50781 36.2812 1.66406 35.4375C0.820312 34.5938 0.375 33.5391 0.328125 32.2734V5.27344ZM14.9531 32.2734C14.9531 31.6172 14.7422 31.0781 14.3203 30.6562C13.8984 30.2344 13.3594 30.0234 12.7031 30.0234C12.0469 30.0234 11.5078 30.2344 11.0859 30.6562C10.6641 31.0781 10.4531 31.6172 10.4531 32.2734C10.4531 32.9297 10.6641 33.4688 11.0859 33.8906C11.5078 34.3125 12.0469 34.5234 12.7031 34.5234C13.3594 34.5234 13.8984 34.3125 14.3203 33.8906C14.7422 33.4688 14.9531 32.9297 14.9531 32.2734ZM20.5781 5.27344H4.82812V27.7734H20.5781V5.27344Z" fill="#22D3EE"/>
</g>
<defs>
<clipPath id="clip0_10_63">
<rect width="27" height="36" fill="white" transform="translate(0.328125)"/>
</clipPath>
</defs>
</svg>
