<svg width="45" height="36" viewBox="0 0 45 36" fill="none" xmlns="http://www.w3.org/2000/svg">
<g clip-path="url(#clip0_10_52)">
<path d="M27.6328 0.84375C27.0234 0.703125 26.4375 0.773438 25.875 1.05469C25.3594 1.33594 25.0078 1.78125 24.8203 2.39062L15.8203 33.8906C15.6797 34.5 15.75 35.0859 16.0312 35.6484C16.3125 36.1641 16.7578 36.5156 17.3672 36.7031C17.9766 36.8438 18.5625 36.7734 19.125 36.4922C19.6406 36.2109 19.9922 35.7656 20.1797 35.1562L29.1797 3.65625C29.3203 3.04687 29.25 2.46094 28.9688 1.89844C28.6875 1.38281 28.2422 1.03125 27.6328 0.84375ZM33.2578 9.28125C32.8359 9.75 32.625 10.2891 32.625 10.8984C32.625 11.5078 32.8359 12.0469 33.2578 12.5156L39.5859 18.7734L33.2578 25.0312C32.8359 25.5 32.625 26.0391 32.625 26.6484C32.625 27.2578 32.8359 27.7969 33.2578 28.2656C33.7266 28.6875 34.2656 28.8984 34.875 28.8984C35.4844 28.8984 36.0234 28.6875 36.4922 28.2656L44.3672 20.3906C44.7891 19.9219 45 19.3828 45 18.7734C45 18.1641 44.7891 17.625 44.3672 17.1562L36.4922 9.28125C36.0234 8.85938 35.4844 8.64844 34.875 8.64844C34.2656 8.64844 33.7266 8.85938 33.2578 9.28125ZM11.7422 9.28125C11.2734 8.85938 10.7344 8.64844 10.125 8.64844C9.51562 8.64844 8.97656 8.85938 8.50781 9.28125L0.632812 17.1562C0.210938 17.625 0 18.1641 0 18.7734C0 19.3828 0.210938 19.9219 0.632812 20.3906L8.50781 28.2656C8.97656 28.6875 9.51562 28.8984 10.125 28.8984C10.7344 28.8984 11.2734 28.6875 11.7422 28.2656C12.1641 27.7969 12.375 27.2578 12.375 26.6484C12.375 26.0391 12.1641 25.5 11.7422 25.0312L5.41406 18.7734L11.7422 12.5156C12.1641 12.0469 12.375 11.5078 12.375 10.8984C12.375 10.2891 12.1641 9.75 11.7422 9.28125Z" fill="black"/>
</g>
<defs>
<clipPath id="clip0_10_52">
<rect width="45" height="36" fill="white"/>
</clipPath>
</defs>
</svg>
