<svg width="41" height="33" viewBox="0 0 41 33" fill="none" xmlns="http://www.w3.org/2000/svg">
<g clip-path="url(#clip0_10_247)">
<path d="M37.7656 11.875C37.7969 12.0937 37.8125 12.2969 37.8125 12.4844C37.8125 14.7031 37.2656 16.875 36.1719 19C35.1094 21.125 33.5313 22.8906 31.4375 24.2969C29.375 25.7031 26.8281 26.4375 23.7969 26.5C20.9844 26.4687 18.4687 25.7344 16.25 24.2969C16.625 24.3281 17.0156 24.3438 17.4219 24.3438C19.7656 24.3125 21.8125 23.6094 23.5625 22.2344C22.4375 22.2031 21.4688 21.875 20.6562 21.25C19.8437 20.625 19.2812 19.8281 18.9688 18.8594C19.25 18.8906 19.5469 18.9062 19.8594 18.9062C20.3281 18.9062 20.7656 18.8594 21.1719 18.7656C20.0156 18.5156 19.0781 17.9531 18.3594 17.0781C17.6406 16.2031 17.2656 15.1562 17.2344 13.9375V13.8438C17.8906 14.2188 18.625 14.4375 19.4375 14.5C18.0625 13.5313 17.3281 12.1562 17.2344 10.375C17.2656 9.46875 17.5 8.64062 17.9375 7.89062C19.1562 9.39062 20.6406 10.5937 22.3906 11.5C24.1094 12.4063 26 12.9219 28.0625 13.0469C28 12.6719 27.9688 12.2969 27.9688 11.9219C28 10.5469 28.4687 9.39062 29.375 8.45312C30.3125 7.51562 31.4687 7.03125 32.8438 7C34.3125 7.03125 35.5156 7.54687 36.4531 8.54688C37.5781 8.32813 38.625 7.9375 39.5938 7.375C39.1875 8.53125 38.4688 9.4375 37.4375 10.0938C38.4062 9.96875 39.3437 9.70313 40.25 9.29688C39.5625 10.2969 38.7344 11.1563 37.7656 11.875Z" fill="#9CA3AF"/>
</g>
<defs>
<clipPath id="clip0_10_247">
<rect width="24" height="24" fill="white" transform="translate(16.25 4.1875)"/>
</clipPath>
</defs>
</svg>
