<svg width="40" height="33" viewBox="0 0 40 33" fill="none" xmlns="http://www.w3.org/2000/svg">
<g clip-path="url(#clip0_10_242)">
<path d="M23.7812 23.3594C23.75 23.4844 23.6719 23.5469 23.5469 23.5469C23.3594 23.5469 23.2656 23.4844 23.2656 23.3594C23.2969 23.2657 23.375 23.2188 23.5 23.2188C23.6562 23.2188 23.75 23.2657 23.7812 23.3594ZM22.3281 23.1719C22.2969 23.2657 22.3594 23.3438 22.5156 23.4063C22.6719 23.4376 22.7656 23.4063 22.7969 23.3126C22.8281 23.1876 22.7656 23.1094 22.6094 23.0782C22.4531 23.0469 22.3594 23.0782 22.3281 23.1719ZM24.3906 23.0782C24.2344 23.1094 24.1562 23.1876 24.1562 23.3126C24.1875 23.4063 24.2813 23.4532 24.4375 23.4532C24.5937 23.3907 24.6719 23.3126 24.6719 23.2188C24.6406 23.1251 24.5469 23.0782 24.3906 23.0782ZM27.4844 5.12507C24.1406 5.18757 21.4062 6.28132 19.2812 8.40632C17.1563 10.5313 16.0625 13.2501 16 16.5626C16.0313 19.2188 16.7656 21.5469 18.2031 23.5469C19.6406 25.5469 21.5625 26.9532 23.9688 27.7657C24.5312 27.7969 24.7969 27.6094 24.7656 27.2032C24.7656 27.0782 24.7656 26.8438 24.7656 26.5001C24.7656 25.7813 24.7656 25.0626 24.7656 24.3438C24.7031 24.3438 24.4062 24.3751 23.875 24.4376C23.3125 24.4688 22.7187 24.4063 22.0938 24.2501C21.4688 24.0626 21.0313 23.6251 20.7812 22.9376C20.7812 22.8751 20.6563 22.6251 20.4062 22.1876C20.1562 21.7813 19.8438 21.4532 19.4688 21.2032C19.4062 21.1719 19.2812 21.0469 19.0938 20.8282C18.875 20.6407 19.0313 20.5313 19.5625 20.5001C19.5938 20.4688 19.8125 20.5313 20.2188 20.6876C20.625 20.8126 21 21.1563 21.3438 21.7188C21.9062 22.5626 22.5156 22.9844 23.1719 22.9844C23.8594 22.9844 24.3906 22.8907 24.7656 22.7032C24.8906 21.9532 25.1406 21.4219 25.5156 21.1094C24.1406 21.0469 22.9375 20.7032 21.9062 20.0782C20.875 19.4844 20.3281 18.0938 20.2656 15.9063C20.2656 15.2813 20.3594 14.7657 20.5469 14.3594C20.7031 13.9532 20.9688 13.5626 21.3438 13.1876C21.2812 13.0001 21.2188 12.6251 21.1562 12.0626C21.0937 11.5001 21.2031 10.8126 21.4844 10.0001C22.0469 9.90632 22.7031 10.0782 23.4531 10.5157C24.2344 10.9219 24.6562 11.1719 24.7188 11.2657C25.6562 10.9844 26.6406 10.8438 27.6719 10.8438C28.6719 10.8438 29.6563 10.9844 30.625 11.2657C30.625 11.2344 30.8281 11.0938 31.2344 10.8438C31.6094 10.5938 32.0469 10.3751 32.5469 10.1876C33.0469 9.96882 33.4844 9.90632 33.8594 10.0001C34.1406 10.8126 34.25 11.5001 34.1875 12.0626C34.125 12.6251 34.0469 13.0001 33.9531 13.1876C34.3281 13.5626 34.625 13.9532 34.8438 14.3594C35.0625 14.7657 35.1719 15.2813 35.1719 15.9063C35.1406 17.4063 34.875 18.5157 34.375 19.2344C33.8438 19.9219 33.1719 20.3907 32.3594 20.6407C31.5469 20.8907 30.6875 21.0469 29.7812 21.1094C30.2813 21.4532 30.5469 22.1719 30.5781 23.2657C30.5781 24.4219 30.5781 25.4532 30.5781 26.3594C30.5781 26.7657 30.5781 27.0469 30.5781 27.2032C30.5469 27.6094 30.8125 27.7969 31.375 27.7657C33.75 26.9532 35.6563 25.5469 37.0938 23.5469C38.5 21.5469 39.2187 19.2188 39.25 16.5626C39.2187 14.3751 38.6875 12.4219 37.6562 10.7032C36.5938 8.98444 35.1875 7.62507 33.4375 6.62507C31.6562 5.65632 29.6719 5.15632 27.4844 5.12507ZM20.5469 21.2969C20.4844 21.3594 20.5 21.4376 20.5938 21.5313C20.6875 21.6251 20.7656 21.6407 20.8281 21.5782C20.8906 21.5157 20.875 21.4376 20.7812 21.3438C20.7187 21.2501 20.6406 21.2344 20.5469 21.2969ZM20.0312 20.9219C20.0312 20.9844 20.0781 21.0469 20.1719 21.1094C20.2656 21.1407 20.3281 21.1251 20.3594 21.0626C20.3906 21.0001 20.3594 20.9376 20.2656 20.8751C20.1719 20.8438 20.0938 20.8594 20.0312 20.9219ZM21.5781 22.5626C21.5156 22.6563 21.5312 22.7657 21.625 22.8907C21.75 22.9844 21.8594 23.0001 21.9531 22.9376C21.9844 22.8438 21.9531 22.7344 21.8594 22.6094C21.7344 22.5157 21.6406 22.5001 21.5781 22.5626ZM21.0156 21.9063C20.9531 21.9688 20.9531 22.0626 21.0156 22.1876C21.1094 22.2813 21.2031 22.3126 21.2969 22.2813C21.3594 22.2188 21.3594 22.1251 21.2969 22.0001C21.2031 21.8751 21.1094 21.8438 21.0156 21.9063Z" fill="#9CA3AF"/>
</g>
<defs>
<clipPath id="clip0_10_242">
<rect width="23.25" height="24" fill="white" transform="translate(16 4.1875)"/>
</clipPath>
</defs>
</svg>
